<?xml version="1.0" standalone="no"?>
<!DOCTYPE svg PUBLIC "-//W3C//DTD SVG 20010904//EN" "http://www.w3.org/TR/2001/REC-SVG-20010904/DTD/svg10.dtd">
<svg version="1.0" xmlns="http://www.w3.org/2000/svg" width="32.000000pt" height="32.000000pt"
  viewBox="0 0 32.000000 32.000000" preserveAspectRatio="xMidYMid meet">

  <g transform="translate(0.000000,32.000000) scale(0.100000,-0.100000)" fill="#000000" stroke="none">
    <path d="M210 272 c0 -13 -7 -18 -22 -18 -35 1 -35 -36 -1 -51 27 -13 113 -18
113 -8 0 18 -32 64 -54 79 -32 20 -36 20 -36 -2z" />
    <path d="M60 125 c0 -16 -6 -25 -15 -25 -21 0 -19 -13 10 -44 44 -48 109 -59
172 -29 31 14 73 64 73 86 0 11 -95 8 -107 -4 -18 -18 -67 -6 -78 19 -14 32
-55 30 -55 -3z" />
  </g>
</svg>