<?xml version="1.0" standalone="no"?>
<!DOCTYPE svg PUBLIC "-//W3C//DTD SVG 20010904//EN" "http://www.w3.org/TR/2001/REC-SVG-20010904/DTD/svg10.dtd">
<svg version="1.0" xmlns="http://www.w3.org/2000/svg" width="160.000000pt" height="60.000000pt"
  viewBox="0 0 160.000000 60.000000" preserveAspectRatio="xMidYMid meet">

  <g transform="translate(0.000000,60.000000) scale(0.100000,-0.100000)" fill="#000000" stroke="none">
    <path d="M964 545 c-54 -54 19 -132 79 -84 34 26 36 71 5 93 -32 22 -55 20
-84 -9z" />
    <path d="M1125 545 c-30 -29 -31 -46 -7 -73 29 -34 58 -37 87 -8 30 30 32 59
5 86 -27 27 -56 25 -85 -5z" />
    <path d="M365 443 c0 -25 -4 -28 -37 -31 -36 -3 -38 -5 -38 -38 0 -21 5 -34
13 -34 7 0 23 -9 35 -20 17 -16 35 -20 97 -20 74 0 76 1 70 23 -14 44 -42 82
-84 114 -23 18 -46 33 -50 33 -4 0 -7 -12 -6 -27z" />
    <path d="M1364 389 c-17 -5 -43 -20 -57 -33 -70 -65 -26 -147 88 -161 55 -6
71 -16 62 -39 -11 -29 -56 -39 -104 -23 -42 14 -44 14 -63 -11 -26 -33 -26
-36 15 -55 82 -39 197 -10 229 57 33 71 -4 115 -106 127 -69 8 -88 21 -72 47
14 21 94 28 125 11 20 -10 25 -8 41 11 24 30 11 45 -55 65 -56 17 -59 17 -103
4z" />
    <path d="M645 367 c-109 -62 -115 -197 -12 -281 74 -59 192 -40 246 40 34 49
40 135 13 184 -40 75 -165 103 -247 57z m150 -82 c33 -32 34 -93 3 -122 -34
-30 -55 -34 -93 -19 -63 27 -75 97 -24 140 39 33 82 34 114 1z" />
    <path d="M953 278 c4 -62 7 -139 7 -170 l0 -58 50 0 50 0 0 170 0 170 -56 0
-57 0 6 -112z" />
    <path d="M1113 268 c4 -66 7 -143 7 -170 l0 -48 50 0 50 0 0 170 0 170 -57 0
-56 0 6 -122z" />
    <path d="M228 333 c-10 -2 -18 -12 -18 -20 0 -14 3 -14 20 2 17 15 26 28 18
24 -2 -1 -11 -3 -20 -6z" />
    <path d="M137 253 c-4 -3 -7 -21 -7 -40 0 -30 -3 -33 -31 -33 l-30 0 22 -40
c13 -23 43 -54 68 -70 40 -27 52 -30 126 -30 72 0 86 3 126 29 45 28 80 72 94
119 6 21 5 22 -71 22 -59 0 -82 -4 -96 -17 -41 -37 -118 -12 -132 43 -5 18
-13 24 -35 24 -15 0 -31 -3 -34 -7z" />
  </g>
</svg>